<svg width="59" height="59" viewBox="0 0 59 59" fill="none" xmlns="http://www.w3.org/2000/svg">
<g filter="url(#filter0_ii_5996_121)">
<g filter="url(#filter1_ii_5996_121)">
<rect width="59" height="59" rx="29.5" fill="#F6F6F6"/>
<circle cx="29.5" cy="29.5" r="29" fill="#1982AF" stroke="url(#paint0_linear_5996_121)"/>
<path d="M16 14L17 12H32.5H41L58 31C57.6691 34.9704 56.6486 38.873 55 42.5L53.0668 45.561C50.4181 49.7547 46.5591 53.0461 42 55L17 47L16 45.5V30V14Z" fill="url(#paint1_linear_5996_121)"/>
</g>
<mask id="path-4-outside-1_5996_121" maskUnits="userSpaceOnUse" x="15" y="11" width="28" height="37" fill="black">
<rect fill="white" x="15" y="11" width="28" height="37"/>
<path fill-rule="evenodd" clip-rule="evenodd" d="M39.4998 47H18.5005C17.1218 47 16.0001 45.8511 16.0001 44.4389L16 14.561C16 13.1488 17.1217 12 18.5004 12H39.4997C40.8785 12 42 13.1488 42 14.561V44.4389C42 45.8511 40.8786 47 39.4998 47ZM37.3999 21.9766H20.6002C19.8006 21.9766 19.1498 21.3101 19.1498 20.4909L19.1498 16.3685C19.1498 15.5494 19.8006 14.8828 20.6003 14.8828H37.3999C38.1996 14.8828 38.8504 15.5493 38.8504 16.3685V20.4912C38.8502 21.3103 38.1996 21.9766 37.3999 21.9766ZM20.6002 15.7031C20.2421 15.7031 19.9506 16.0016 19.9506 16.3685V20.4912C19.9506 20.8581 20.2421 21.1566 20.6002 21.1566H37.3999C37.7581 21.1566 38.0492 20.8581 38.0492 20.4912V16.3685C38.0492 16.0016 37.7581 15.7031 37.3999 15.7031H20.6002ZM23.378 29.3568H20.3422C19.6848 29.3568 19.1498 28.809 19.1498 28.1355V24.8873C19.1498 24.2139 19.6849 23.6659 20.3422 23.6659L23.378 23.6658C24.0354 23.6658 24.5703 24.2136 24.5703 24.8871V28.1357C24.57 28.809 24.0353 29.3568 23.378 29.3568ZM20.3422 24.4862C20.1264 24.4862 19.9507 24.666 19.9507 24.8871V28.1357C19.9507 28.3567 20.1264 28.5367 20.3422 28.5367L23.378 28.5369C23.5938 28.5369 23.7695 28.3571 23.7695 28.1358V24.8873C23.7695 24.6663 23.5939 24.4863 23.378 24.4863L20.3422 24.4862ZM30.5178 29.3568H27.4823C26.8249 29.3568 26.29 28.809 26.29 28.1355V24.8873C26.29 24.2139 26.8247 23.6659 27.4823 23.6659L30.5178 23.6658C31.1754 23.6658 31.7104 24.2136 31.7104 24.8871V28.1357C31.7104 28.809 31.1754 29.3568 30.5178 29.3568ZM27.4823 24.4862C27.2666 24.4862 27.0908 24.666 27.0908 24.8871V28.1357C27.0908 28.3567 27.2663 28.5367 27.4823 28.5367L30.5178 28.5369C30.7335 28.5369 30.9092 28.3571 30.9092 28.1358V24.8873C30.9092 24.6663 30.7335 24.4863 30.5178 24.4863L27.4823 24.4862ZM37.6579 29.3568H34.6224C33.9648 29.3568 33.4298 28.809 33.4298 28.1355V24.8873C33.4298 24.2139 33.9648 23.6659 34.6224 23.6659L37.6579 23.6658C38.3153 23.6658 38.8502 24.2136 38.8502 24.8871V28.1357C38.8502 28.809 38.3153 29.3568 37.6579 29.3568ZM34.6224 24.4862C34.4067 24.4862 34.231 24.666 34.231 24.8871V28.1357C34.231 28.3567 34.4067 28.5367 34.6224 28.5367L37.6579 28.5369C37.8736 28.5369 38.0492 28.3571 38.0492 28.1358V24.8873C38.0492 24.6663 37.8736 24.4863 37.6579 24.4863L34.6224 24.4862ZM23.378 36.737H20.3422C19.6848 36.737 19.1498 36.189 19.1498 35.5158V32.2671C19.1498 31.5938 19.6849 31.0459 20.3422 31.0459H23.378C24.0354 31.0459 24.5703 31.5939 24.5703 32.2671V35.5158C24.57 36.189 24.0353 36.737 23.378 36.737ZM20.3422 31.8665C20.1264 31.8665 19.9507 32.0463 19.9507 32.2673V35.5158C19.9507 35.7368 20.1264 35.9166 20.3422 35.9166L23.378 35.9166C23.5938 35.9166 23.7695 35.7367 23.7695 35.5158V32.2671C23.7695 32.0462 23.5939 31.8664 23.378 31.8664L20.3422 31.8665ZM30.5178 36.737H27.4823C26.8249 36.737 26.29 36.189 26.29 35.5158V32.2671C26.29 31.5938 26.8247 31.0459 27.4823 31.0459H30.5178C31.1754 31.0459 31.7104 31.5939 31.7104 32.2671V35.5158C31.7104 36.189 31.1754 36.737 30.5178 36.737ZM27.4823 31.8665C27.2666 31.8665 27.0908 32.0463 27.0908 32.2673V35.5158C27.0908 35.7368 27.2663 35.9166 27.4823 35.9166L30.5178 35.9166C30.7335 35.9166 30.9092 35.7367 30.9092 35.5158V32.2671C30.9092 32.0462 30.7335 31.8664 30.5178 31.8664L27.4823 31.8665ZM37.6579 44.1174H34.6224C33.9648 44.1174 33.4298 43.5693 33.4298 42.8961V32.2671C33.4298 31.5938 33.9648 31.0459 34.6224 31.0459H37.6579C38.3153 31.0459 38.8502 31.5939 38.8502 32.2671V42.8959C38.8502 43.5696 38.3153 44.1174 37.6579 44.1174ZM34.6224 31.8665C34.4067 31.8665 34.231 32.0463 34.231 32.2673V42.8961C34.231 43.1171 34.4067 43.2968 34.6224 43.2968L37.6579 43.2967C37.8736 43.2967 38.0492 43.117 38.0492 42.8959V32.2672C38.0492 32.0462 37.8736 31.8664 37.6579 31.8664L34.6224 31.8665ZM23.378 44.1174H20.3422C19.6848 44.1174 19.1498 43.5693 19.1498 42.8961V39.6475C19.1498 38.9742 19.6849 38.4262 20.3422 38.4262L23.378 38.4261C24.0354 38.4261 24.5703 38.9742 24.5703 39.6474V42.8959C24.57 43.5696 24.0353 44.1174 23.378 44.1174ZM20.3422 39.2468C20.1264 39.2468 19.9507 39.4265 19.9507 39.6475V42.8961C19.9507 43.1171 20.1264 43.2968 20.3422 43.2968L23.378 43.2967C23.5938 43.2967 23.7695 43.117 23.7695 42.8959V39.6474C23.7695 39.4264 23.5939 39.2466 23.378 39.2466L20.3422 39.2468ZM30.5178 44.1174H27.4823C26.8249 44.1174 26.29 43.5693 26.29 42.8961V39.6475C26.29 38.9742 26.8247 38.4262 27.4823 38.4262L30.5178 38.4261C31.1754 38.4261 31.7104 38.9742 31.7104 39.6474V42.8959C31.7104 43.5696 31.1754 44.1174 30.5178 44.1174ZM27.4823 39.2468C27.2666 39.2468 27.0908 39.4265 27.0908 39.6475V42.8961C27.0908 43.1171 27.2663 43.2968 27.4823 43.2968L30.5178 43.2967C30.7335 43.2967 30.9092 43.117 30.9092 42.8959V39.6474C30.9092 39.4264 30.7335 39.2466 30.5178 39.2466L27.4823 39.2468ZM37.1899 37.9917H36.5405V38.6571C36.5405 38.8833 36.3611 39.0673 36.1402 39.0673C35.9191 39.0673 35.7397 38.8833 35.7397 38.6571V37.9917H35.0899C34.5627 37.9917 34.563 37.1714 35.0899 37.1714H35.7397V36.5064C35.7397 35.9664 36.5405 35.9665 36.5405 36.5064V37.1714H37.1899C37.7169 37.1714 37.7171 37.9917 37.1899 37.9917ZM35.6499 20.2738C35.4289 20.2738 35.2495 20.0901 35.2495 19.8637V16.996C35.2495 16.4561 36.0503 16.4561 36.0503 16.996V19.8637C36.0503 20.0902 35.871 20.2738 35.6499 20.2738ZM21.2188 27.6481C20.9977 27.6481 20.8183 27.4644 20.8183 27.238C20.8183 25.0903 20.5423 25.375 22.5015 25.3748C23.0285 25.3748 23.0287 26.1951 22.5015 26.1951H21.6192C21.6192 26.8746 21.7624 27.6481 21.2188 27.6481ZM28.3588 27.6481C28.1378 27.6481 27.9584 27.4644 27.9584 27.238C27.9584 25.0903 27.6824 25.375 29.6416 25.3748C30.1687 25.3748 30.1685 26.1951 29.6416 26.1951H28.7593C28.7593 26.874 28.9025 27.6481 28.3588 27.6481ZM35.4986 27.6481C35.2776 27.6481 35.0982 27.4644 35.0982 27.238C35.0982 25.0904 34.8223 25.375 36.7813 25.3748C37.3085 25.3748 37.3083 26.1951 36.7813 26.1951H35.899C35.899 26.875 36.0424 27.6481 35.4986 27.6481ZM21.2188 35.0281C20.9977 35.0281 20.8183 34.8441 20.8183 34.6179C20.8183 32.47 20.5424 32.7548 22.5015 32.7548C23.0285 32.7548 23.0285 33.5751 22.5015 33.5751H21.6192C21.6192 34.2547 21.7624 35.0281 21.2188 35.0281ZM28.3588 35.0281C28.1378 35.0281 27.9584 34.8441 27.9584 34.6179C27.9584 32.47 27.6825 32.7548 29.6416 32.7548C30.1687 32.7548 30.1685 33.5751 29.6416 33.5751H28.7593C28.7593 34.254 28.9025 35.0281 28.3588 35.0281ZM21.2188 42.4084C20.9977 42.4084 20.8183 42.2244 20.8183 41.9983C20.8183 39.8506 20.5423 40.1352 22.5015 40.1351C23.0285 40.1351 23.0285 40.9554 22.5015 40.9554H21.6192C21.6192 41.6346 21.7624 42.4084 21.2188 42.4084ZM28.3588 42.4084C28.1378 42.4084 27.9584 42.2244 27.9584 41.9983C27.9584 39.8506 27.6824 40.1352 29.6416 40.1351C30.1687 40.1351 30.1685 40.9554 29.6416 40.9554H28.7593C28.7593 41.634 28.9025 42.4084 28.3588 42.4084Z"/>
</mask>
<path fill-rule="evenodd" clip-rule="evenodd" d="M39.4998 47H18.5005C17.1218 47 16.0001 45.8511 16.0001 44.4389L16 14.561C16 13.1488 17.1217 12 18.5004 12H39.4997C40.8785 12 42 13.1488 42 14.561V44.4389C42 45.8511 40.8786 47 39.4998 47ZM37.3999 21.9766H20.6002C19.8006 21.9766 19.1498 21.3101 19.1498 20.4909L19.1498 16.3685C19.1498 15.5494 19.8006 14.8828 20.6003 14.8828H37.3999C38.1996 14.8828 38.8504 15.5493 38.8504 16.3685V20.4912C38.8502 21.3103 38.1996 21.9766 37.3999 21.9766ZM20.6002 15.7031C20.2421 15.7031 19.9506 16.0016 19.9506 16.3685V20.4912C19.9506 20.8581 20.2421 21.1566 20.6002 21.1566H37.3999C37.7581 21.1566 38.0492 20.8581 38.0492 20.4912V16.3685C38.0492 16.0016 37.7581 15.7031 37.3999 15.7031H20.6002ZM23.378 29.3568H20.3422C19.6848 29.3568 19.1498 28.809 19.1498 28.1355V24.8873C19.1498 24.2139 19.6849 23.6659 20.3422 23.6659L23.378 23.6658C24.0354 23.6658 24.5703 24.2136 24.5703 24.8871V28.1357C24.57 28.809 24.0353 29.3568 23.378 29.3568ZM20.3422 24.4862C20.1264 24.4862 19.9507 24.666 19.9507 24.8871V28.1357C19.9507 28.3567 20.1264 28.5367 20.3422 28.5367L23.378 28.5369C23.5938 28.5369 23.7695 28.3571 23.7695 28.1358V24.8873C23.7695 24.6663 23.5939 24.4863 23.378 24.4863L20.3422 24.4862ZM30.5178 29.3568H27.4823C26.8249 29.3568 26.29 28.809 26.29 28.1355V24.8873C26.29 24.2139 26.8247 23.6659 27.4823 23.6659L30.5178 23.6658C31.1754 23.6658 31.7104 24.2136 31.7104 24.8871V28.1357C31.7104 28.809 31.1754 29.3568 30.5178 29.3568ZM27.4823 24.4862C27.2666 24.4862 27.0908 24.666 27.0908 24.8871V28.1357C27.0908 28.3567 27.2663 28.5367 27.4823 28.5367L30.5178 28.5369C30.7335 28.5369 30.9092 28.3571 30.9092 28.1358V24.8873C30.9092 24.6663 30.7335 24.4863 30.5178 24.4863L27.4823 24.4862ZM37.6579 29.3568H34.6224C33.9648 29.3568 33.4298 28.809 33.4298 28.1355V24.8873C33.4298 24.2139 33.9648 23.6659 34.6224 23.6659L37.6579 23.6658C38.3153 23.6658 38.8502 24.2136 38.8502 24.8871V28.1357C38.8502 28.809 38.3153 29.3568 37.6579 29.3568ZM34.6224 24.4862C34.4067 24.4862 34.231 24.666 34.231 24.8871V28.1357C34.231 28.3567 34.4067 28.5367 34.6224 28.5367L37.6579 28.5369C37.8736 28.5369 38.0492 28.3571 38.0492 28.1358V24.8873C38.0492 24.6663 37.8736 24.4863 37.6579 24.4863L34.6224 24.4862ZM23.378 36.737H20.3422C19.6848 36.737 19.1498 36.189 19.1498 35.5158V32.2671C19.1498 31.5938 19.6849 31.0459 20.3422 31.0459H23.378C24.0354 31.0459 24.5703 31.5939 24.5703 32.2671V35.5158C24.57 36.189 24.0353 36.737 23.378 36.737ZM20.3422 31.8665C20.1264 31.8665 19.9507 32.0463 19.9507 32.2673V35.5158C19.9507 35.7368 20.1264 35.9166 20.3422 35.9166L23.378 35.9166C23.5938 35.9166 23.7695 35.7367 23.7695 35.5158V32.2671C23.7695 32.0462 23.5939 31.8664 23.378 31.8664L20.3422 31.8665ZM30.5178 36.737H27.4823C26.8249 36.737 26.29 36.189 26.29 35.5158V32.2671C26.29 31.5938 26.8247 31.0459 27.4823 31.0459H30.5178C31.1754 31.0459 31.7104 31.5939 31.7104 32.2671V35.5158C31.7104 36.189 31.1754 36.737 30.5178 36.737ZM27.4823 31.8665C27.2666 31.8665 27.0908 32.0463 27.0908 32.2673V35.5158C27.0908 35.7368 27.2663 35.9166 27.4823 35.9166L30.5178 35.9166C30.7335 35.9166 30.9092 35.7367 30.9092 35.5158V32.2671C30.9092 32.0462 30.7335 31.8664 30.5178 31.8664L27.4823 31.8665ZM37.6579 44.1174H34.6224C33.9648 44.1174 33.4298 43.5693 33.4298 42.8961V32.2671C33.4298 31.5938 33.9648 31.0459 34.6224 31.0459H37.6579C38.3153 31.0459 38.8502 31.5939 38.8502 32.2671V42.8959C38.8502 43.5696 38.3153 44.1174 37.6579 44.1174ZM34.6224 31.8665C34.4067 31.8665 34.231 32.0463 34.231 32.2673V42.8961C34.231 43.1171 34.4067 43.2968 34.6224 43.2968L37.6579 43.2967C37.8736 43.2967 38.0492 43.117 38.0492 42.8959V32.2672C38.0492 32.0462 37.8736 31.8664 37.6579 31.8664L34.6224 31.8665ZM23.378 44.1174H20.3422C19.6848 44.1174 19.1498 43.5693 19.1498 42.8961V39.6475C19.1498 38.9742 19.6849 38.4262 20.3422 38.4262L23.378 38.4261C24.0354 38.4261 24.5703 38.9742 24.5703 39.6474V42.8959C24.57 43.5696 24.0353 44.1174 23.378 44.1174ZM20.3422 39.2468C20.1264 39.2468 19.9507 39.4265 19.9507 39.6475V42.8961C19.9507 43.1171 20.1264 43.2968 20.3422 43.2968L23.378 43.2967C23.5938 43.2967 23.7695 43.117 23.7695 42.8959V39.6474C23.7695 39.4264 23.5939 39.2466 23.378 39.2466L20.3422 39.2468ZM30.5178 44.1174H27.4823C26.8249 44.1174 26.29 43.5693 26.29 42.8961V39.6475C26.29 38.9742 26.8247 38.4262 27.4823 38.4262L30.5178 38.4261C31.1754 38.4261 31.7104 38.9742 31.7104 39.6474V42.8959C31.7104 43.5696 31.1754 44.1174 30.5178 44.1174ZM27.4823 39.2468C27.2666 39.2468 27.0908 39.4265 27.0908 39.6475V42.8961C27.0908 43.1171 27.2663 43.2968 27.4823 43.2968L30.5178 43.2967C30.7335 43.2967 30.9092 43.117 30.9092 42.8959V39.6474C30.9092 39.4264 30.7335 39.2466 30.5178 39.2466L27.4823 39.2468ZM37.1899 37.9917H36.5405V38.6571C36.5405 38.8833 36.3611 39.0673 36.1402 39.0673C35.9191 39.0673 35.7397 38.8833 35.7397 38.6571V37.9917H35.0899C34.5627 37.9917 34.563 37.1714 35.0899 37.1714H35.7397V36.5064C35.7397 35.9664 36.5405 35.9665 36.5405 36.5064V37.1714H37.1899C37.7169 37.1714 37.7171 37.9917 37.1899 37.9917ZM35.6499 20.2738C35.4289 20.2738 35.2495 20.0901 35.2495 19.8637V16.996C35.2495 16.4561 36.0503 16.4561 36.0503 16.996V19.8637C36.0503 20.0902 35.871 20.2738 35.6499 20.2738ZM21.2188 27.6481C20.9977 27.6481 20.8183 27.4644 20.8183 27.238C20.8183 25.0903 20.5423 25.375 22.5015 25.3748C23.0285 25.3748 23.0287 26.1951 22.5015 26.1951H21.6192C21.6192 26.8746 21.7624 27.6481 21.2188 27.6481ZM28.3588 27.6481C28.1378 27.6481 27.9584 27.4644 27.9584 27.238C27.9584 25.0903 27.6824 25.375 29.6416 25.3748C30.1687 25.3748 30.1685 26.1951 29.6416 26.1951H28.7593C28.7593 26.874 28.9025 27.6481 28.3588 27.6481ZM35.4986 27.6481C35.2776 27.6481 35.0982 27.4644 35.0982 27.238C35.0982 25.0904 34.8223 25.375 36.7813 25.3748C37.3085 25.3748 37.3083 26.1951 36.7813 26.1951H35.899C35.899 26.875 36.0424 27.6481 35.4986 27.6481ZM21.2188 35.0281C20.9977 35.0281 20.8183 34.8441 20.8183 34.6179C20.8183 32.47 20.5424 32.7548 22.5015 32.7548C23.0285 32.7548 23.0285 33.5751 22.5015 33.5751H21.6192C21.6192 34.2547 21.7624 35.0281 21.2188 35.0281ZM28.3588 35.0281C28.1378 35.0281 27.9584 34.8441 27.9584 34.6179C27.9584 32.47 27.6825 32.7548 29.6416 32.7548C30.1687 32.7548 30.1685 33.5751 29.6416 33.5751H28.7593C28.7593 34.254 28.9025 35.0281 28.3588 35.0281ZM21.2188 42.4084C20.9977 42.4084 20.8183 42.2244 20.8183 41.9983C20.8183 39.8506 20.5423 40.1352 22.5015 40.1351C23.0285 40.1351 23.0285 40.9554 22.5015 40.9554H21.6192C21.6192 41.6346 21.7624 42.4084 21.2188 42.4084ZM28.3588 42.4084C28.1378 42.4084 27.9584 42.2244 27.9584 41.9983C27.9584 39.8506 27.6824 40.1352 29.6416 40.1351C30.1687 40.1351 30.1685 40.9554 29.6416 40.9554H28.7593C28.7593 41.634 28.9025 42.4084 28.3588 42.4084Z" stroke="white" stroke-width="2" mask="url(#path-4-outside-1_5996_121)"/>
<circle cx="37" cy="43" r="7.5" fill="#44A2C9" stroke="white"/>
<path d="M37.75 39H36C35.7 39 35.5 39.225 35.5 39.5625V42.9375H34.5C34.2 42.9375 34 43.1625 34 43.5C34 43.7812 34.2 44.0625 34.5 44.0625H35.5V45.1875H34.5C34.2 45.1875 34 45.4688 34 45.75C34 46.0312 34.2 46.3125 34.5 46.3125H35.5V47.4375C35.5 47.7188 35.7 48 36 48C36.3 48 36.5 47.7188 36.5 47.4375V46.3125H38C38.25 46.3125 38.5 46.0312 38.5 45.75C38.5 45.4688 38.25 45.1875 38 45.1875H36.5V44.0625H37.75C39 44.0625 40 42.9375 40 41.5312C40 40.125 39 39 37.75 39ZM37.75 42.9375H36.5V40.125H37.75C38.45 40.125 39 40.7437 39 41.5312C39 42.3187 38.45 42.9375 37.75 42.9375Z" fill="white"/>
</g>
<defs>
<filter id="filter0_ii_5996_121" x="-1" y="-1" width="61" height="61" filterUnits="userSpaceOnUse" color-interpolation-filters="sRGB">
<feFlood flood-opacity="0" result="BackgroundImageFix"/>
<feBlend mode="normal" in="SourceGraphic" in2="BackgroundImageFix" result="shape"/>
<feColorMatrix in="SourceAlpha" type="matrix" values="0 0 0 0 0 0 0 0 0 0 0 0 0 0 0 0 0 0 127 0" result="hardAlpha"/>
<feOffset dx="-1" dy="1"/>
<feGaussianBlur stdDeviation="1"/>
<feComposite in2="hardAlpha" operator="arithmetic" k2="-1" k3="1"/>
<feColorMatrix type="matrix" values="0 0 0 0 0.337255 0 0 0 0 0.717647 0 0 0 0 0.886275 0 0 0 1 0"/>
<feBlend mode="normal" in2="shape" result="effect1_innerShadow_5996_121"/>
<feColorMatrix in="SourceAlpha" type="matrix" values="0 0 0 0 0 0 0 0 0 0 0 0 0 0 0 0 0 0 127 0" result="hardAlpha"/>
<feOffset dx="1" dy="-1"/>
<feGaussianBlur stdDeviation="1"/>
<feComposite in2="hardAlpha" operator="arithmetic" k2="-1" k3="1"/>
<feColorMatrix type="matrix" values="0 0 0 0 1 0 0 0 0 1 0 0 0 0 1 0 0 0 0.3 0"/>
<feBlend mode="normal" in2="effect1_innerShadow_5996_121" result="effect2_innerShadow_5996_121"/>
</filter>
<filter id="filter1_ii_5996_121" x="-3" y="-3" width="65" height="65" filterUnits="userSpaceOnUse" color-interpolation-filters="sRGB">
<feFlood flood-opacity="0" result="BackgroundImageFix"/>
<feBlend mode="normal" in="SourceGraphic" in2="BackgroundImageFix" result="shape"/>
<feColorMatrix in="SourceAlpha" type="matrix" values="0 0 0 0 0 0 0 0 0 0 0 0 0 0 0 0 0 0 127 0" result="hardAlpha"/>
<feOffset dx="-3" dy="-3"/>
<feGaussianBlur stdDeviation="2"/>
<feComposite in2="hardAlpha" operator="arithmetic" k2="-1" k3="1"/>
<feColorMatrix type="matrix" values="0 0 0 0 0.942014 0 0 0 0 0.982263 0 0 0 0 1 0 0 0 1 0"/>
<feBlend mode="normal" in2="shape" result="effect1_innerShadow_5996_121"/>
<feColorMatrix in="SourceAlpha" type="matrix" values="0 0 0 0 0 0 0 0 0 0 0 0 0 0 0 0 0 0 127 0" result="hardAlpha"/>
<feOffset dx="3" dy="3"/>
<feGaussianBlur stdDeviation="2"/>
<feComposite in2="hardAlpha" operator="arithmetic" k2="-1" k3="1"/>
<feColorMatrix type="matrix" values="0 0 0 0 1 0 0 0 0 1 0 0 0 0 1 0 0 0 0.3 0"/>
<feBlend mode="normal" in2="effect1_innerShadow_5996_121" result="effect2_innerShadow_5996_121"/>
</filter>
<linearGradient id="paint0_linear_5996_121" x1="55.5" y1="43.5" x2="14.5" y2="9.5" gradientUnits="userSpaceOnUse">
<stop stop-color="#CBE9F6"/>
<stop offset="1" stop-color="#1692C9"/>
</linearGradient>
<linearGradient id="paint1_linear_5996_121" x1="19.5" y1="16.5" x2="46.5" y2="42.5" gradientUnits="userSpaceOnUse">
<stop offset="0.391607" stop-color="#4AB2DF"/>
<stop offset="1" stop-color="#C5E6F5" stop-opacity="0"/>
</linearGradient>
</defs>
</svg>
